<svg width="293" height="211" viewBox="0 0 293 211" fill="none" xmlns="http://www.w3.org/2000/svg">
<path d="M203.678 -3.8147e-06L146.116 79.5843L88.65 -3.8147e-06H0V62.5343H21.9594V147.859H0V210.391H113.041V147.859H89.6187V98.8905L145.812 176.159L202.709 98.8249V147.859H179.287V210.391H292.328V147.859H270.369V62.5343H292.328V-3.8147e-06H203.678Z" fill="#006A4E"/>
<path d="M287.616 57.8125V4.69363H206.078L146.106 87.6063L86.2407 4.69363H4.70312V57.8125H26.6625V152.553H4.70312V205.672H108.331V152.553H84.9063V84.4061L145.828 168.175L207.413 84.4717V152.553H183.991V205.672H287.616V152.553H265.656V57.8125H287.616Z" fill="#006A4E"/>
</svg>
